<?xml version="1.0" encoding="UTF-8"?>
<svg id="Layer_1" data-name="Layer 1" xmlns="http://www.w3.org/2000/svg" xmlns:xlink="http://www.w3.org/1999/xlink" viewBox="0 0 513 513">
  <defs>
    <style>
      .cls-1, .cls-2, .cls-3, .cls-4 {
        stroke: #fff;
      }

      .cls-1, .cls-3, .cls-4 {
        fill: none;
      }

      .cls-1, .cls-4 {
        stroke-linejoin: round;
        stroke-width: 30px;
      }

      .cls-2 {
        fill: #000;
        stroke-width: 18px;
      }

      .cls-2, .cls-3 {
        stroke-miterlimit: 10;
      }

      .cls-5 {
        clip-path: url(#clippath);
      }

      .cls-4 {
        stroke-linecap: round;
      }
    </style>
    <clipPath id="clippath">
      <rect class="cls-3" x=".5" y=".5" width="512" height="512"/>
    </clipPath>
  </defs>
  <g>
    <g class="cls-5">
      <g>
        <path class="cls-4" d="M497.5,262.55v204.97c0,16.56-13.42,29.98-29.98,29.98h-204.97c-16.56,0-29.99-13.42-29.99-29.98v-187.08h17.89c16.56,0,29.99-13.43,29.99-29.99v-17.89h76.52c21.61-54.61,74.31-59.96,74.31-59.96v59.96h36.25c16.56,0,29.98,13.43,29.98,29.99Z"/>
        <path class="cls-4" d="M280.44,45.48v204.97c0,16.56-13.43,29.99-29.99,29.99h-94.41c-21.61,54.61-74.31,59.96-74.31,59.96v-59.96h-36.25c-16.56,0-29.98-13.43-29.98-29.99V45.48c0-16.56,13.42-29.98,29.98-29.98h204.97c16.56,0,29.99,13.42,29.99,29.98Z"/>
        <path class="cls-4" d="M304.82,425.25l60.21-120.43,60.21,120.43"/>
        <path class="cls-1" d="M319.87,395.14h90.32"/>
        <path class="cls-4" d="M361.72,45.61h15.05c66.51,0,120.42,53.92,120.42,120.43h0"/>
        <path class="cls-4" d="M376.77,75.71l-30.11-30.11,30.11-30.11"/>
        <path class="cls-4" d="M150.98,467.09h-15.05c-66.51,0-120.42-53.92-120.42-120.43h0"/>
        <path class="cls-4" d="M135.93,436.99l30.11,30.11-30.11,30.11"/>
      </g>
    </g>
    <rect class="cls-3" x=".5" y=".5" width="512" height="512"/>
  </g>
  <path class="cls-2" d="M190.47,210.44c-7.96,6.23-17.53,9.52-27.66,9.52-24.79,0-44.95-20.17-44.95-44.95s20.17-44.95,44.95-44.95h20.17c4.14,0,7.5-3.36,7.5-7.5s-3.36-7.5-7.5-7.5h-24.21c-9.21,0-16.71-7.5-16.71-16.71s7.5-16.71,16.71-16.71c4.75,0,9.29,2.03,12.46,5.57,2.76,3.09,7.5,3.35,10.59.59s3.35-7.5.59-10.59c-6.02-6.72-14.61-10.56-23.63-10.57-17.48,0-31.71,14.23-31.71,31.71,0,8.9,3.69,16.95,9.61,22.71-20,9.73-33.82,30.25-33.82,53.95,0,33.06,26.9,59.95,59.95,59.95,13.51,0,26.27-4.39,36.9-12.7,3.26-2.55,3.84-7.27,1.29-10.53s-7.27-3.84-10.53-1.29h0Z"/>
</svg>