<?xml version="1.0" encoding="UTF-8"?>
<svg xmlns="http://www.w3.org/2000/svg" xmlns:xlink="http://www.w3.org/1999/xlink" viewBox="0 0 506.65 488.76">
  <defs>
    <style>
      .cls-1 {
        fill: url(#radial-gradient-4);
      }

      .cls-1, .cls-2 {
        opacity: .6;
      }

      .cls-1, .cls-2, .cls-3, .cls-4, .cls-5, .cls-6 {
        stroke-width: 0px;
      }

      .cls-1, .cls-2, .cls-4, .cls-5 {
        mix-blend-mode: overlay;
      }

      .cls-7 {
        isolation: isolate;
      }

      .cls-2 {
        fill: url(#radial-gradient-2);
      }

      .cls-3 {
        fill: url(#radial-gradient);
      }

      .cls-4 {
        fill: url(#Degradado_sin_nombre_34);
      }

      .cls-4, .cls-5 {
        opacity: .3;
      }

      .cls-5 {
        fill: url(#Degradado_sin_nombre_34-2);
      }

      .cls-6 {
        fill: url(#radial-gradient-3);
      }
    </style>
    <radialGradient id="radial-gradient" cx="2165.23" cy="245.26" fx="2165.23" fy="245.26" r="259.23" gradientTransform="translate(2590.13) rotate(-180) scale(1 -1)" gradientUnits="userSpaceOnUse">
      <stop offset="0" stop-color="#bbe3de"/>
      <stop offset=".19" stop-color="#76aadb"/>
      <stop offset="1" stop-color="#516ab2"/>
    </radialGradient>
    <radialGradient id="radial-gradient-2" cx="161.93" cy="-2221.68" fx="161.93" fy="-2221.68" r="44.97" gradientTransform="translate(3884.74 -2859.12) rotate(53.97) scale(1.43 -2.08) skewX(-4.38)" gradientUnits="userSpaceOnUse">
      <stop offset="0" stop-color="#fff"/>
      <stop offset=".1" stop-color="rgba(255, 255, 255, .85)" stop-opacity=".85"/>
      <stop offset=".29" stop-color="rgba(255, 255, 255, .59)" stop-opacity=".59"/>
      <stop offset=".47" stop-color="rgba(255, 255, 255, .38)" stop-opacity=".38"/>
      <stop offset=".63" stop-color="rgba(255, 255, 255, .22)" stop-opacity=".22"/>
      <stop offset=".78" stop-color="rgba(255, 255, 255, .1)" stop-opacity=".1"/>
      <stop offset=".91" stop-color="rgba(255, 255, 255, .03)" stop-opacity=".03"/>
      <stop offset="1" stop-color="#fff" stop-opacity="0"/>
    </radialGradient>
    <radialGradient id="Degradado_sin_nombre_34" data-name="Degradado sin nombre 34" cx="1985.42" cy="105.83" fx="1985.42" fy="105.83" r="32.07" gradientTransform="translate(1489.83 1370.93) rotate(-140.59) scale(.84 2.3) skewX(11.82)" gradientUnits="userSpaceOnUse">
      <stop offset="0" stop-color="#fff"/>
      <stop offset=".1" stop-color="rgba(255, 255, 255, .85)" stop-opacity=".85"/>
      <stop offset=".29" stop-color="rgba(255, 255, 255, .59)" stop-opacity=".59"/>
      <stop offset=".47" stop-color="rgba(255, 255, 255, .38)" stop-opacity=".38"/>
      <stop offset=".63" stop-color="rgba(255, 255, 255, .22)" stop-opacity=".22"/>
      <stop offset=".78" stop-color="rgba(255, 255, 255, .1)" stop-opacity=".1"/>
      <stop offset=".91" stop-color="rgba(255, 255, 255, .03)" stop-opacity=".03"/>
      <stop offset="1" stop-color="#fff" stop-opacity="0"/>
    </radialGradient>
    <radialGradient id="radial-gradient-3" cx="114.24" cy="380.85" fx="114.24" fy="380.85" r="362.27" gradientTransform="matrix(1,0,0,1,0,0)" xlink:href="#radial-gradient"/>
    <radialGradient id="radial-gradient-4" cx="1142.33" cy="-1462.91" fx="1142.33" fy="-1462.91" r="62.84" gradientTransform="translate(-1294.61 -2859.12) rotate(126.03) scale(1.43 2.08) skewX(-4.38)" xlink:href="#radial-gradient-2"/>
    <radialGradient id="Degradado_sin_nombre_34-2" data-name="Degradado sin nombre 34" cx="829.75" cy="2373.44" fx="829.75" fy="2373.44" r="44.81" gradientTransform="translate(2834.17 5115.09) rotate(-39.41) scale(.84 -2.3) skewX(11.82)" xlink:href="#Degradado_sin_nombre_34"/>
  </defs>
  <g class="cls-7">
    <g id="Layer_1" data-name="Layer 1">
      <g>
        <g>
          <g>
            <path class="cls-3" d="M267.93,199.7c-.04,65.95,53.44,119.31,119.32,119.33,65.96.02,119.38-53.38,119.4-119.33-.03-65.95-119.35-199.7-119.35-199.7,0,0-119.35,133.78-119.38,199.7Z"/>
            <path class="cls-2" d="M462.36,295.74c40.17-32.6,55.94-82.22,35.04-110.91-20.81-28.67-70.31-25.49-110.51,7.15-40.27,32.6-55.91,82.33-35.05,110.9,20.84,28.69,70.35,25.51,110.52-7.14Z"/>
          </g>
          <path class="cls-4" d="M307.43,105.02c-19.95,37.94-21.92,71.21-4.38,74.37,17.52,3.12,47.92-25.11,67.88-63.06,19.96-37.96,21.91-71.24,4.38-74.37-17.55-3.08-47.92,25.12-67.88,63.06Z"/>
        </g>
        <g>
          <g>
            <path class="cls-6" d="M333.61,317.19c.04,92.16-74.69,166.73-166.76,166.76C74.69,483.98.04,409.34,0,317.19.04,225.02,166.78,38.1,166.78,38.1c0,0,166.79,186.96,166.84,279.08Z"/>
            <path class="cls-1" d="M61.88,451.39C5.75,405.83-16.29,336.49,12.91,296.39c29.09-40.06,98.26-35.61,154.44,10,56.26,45.56,78.13,115.05,48.98,154.99-29.13,40.1-98.32,35.65-154.46-9.99Z"/>
          </g>
          <path class="cls-5" d="M278.4,184.86c27.89,53.03,30.63,99.52,6.12,103.94-24.48,4.35-66.97-35.1-94.88-88.13-27.88-53.05-30.61-99.55-6.11-103.92,24.52-4.32,66.97,35.1,94.86,88.12Z"/>
        </g>
      </g>
    </g>
  </g>
</svg>