<?xml version="1.0" encoding="UTF-8"?>
<svg xmlns="http://www.w3.org/2000/svg" xmlns:xlink="http://www.w3.org/1999/xlink" viewBox="0 0 460.56 506.43">
  <defs>
    <style>
      .cls-1 {
        fill: url(#radial-gradient-16);
      }

      .cls-1, .cls-2, .cls-3, .cls-4, .cls-5, .cls-6, .cls-7, .cls-8, .cls-9, .cls-10, .cls-11, .cls-12, .cls-13, .cls-14, .cls-15, .cls-16, .cls-17, .cls-18, .cls-19, .cls-20, .cls-21, .cls-22, .cls-23, .cls-24, .cls-25, .cls-26, .cls-27, .cls-28, .cls-29 {
        stroke-width: 0px;
      }

      .cls-2 {
        fill: url(#radial-gradient-17);
      }

      .cls-2, .cls-5, .cls-6, .cls-7, .cls-10, .cls-12, .cls-15, .cls-17, .cls-18, .cls-19, .cls-22, .cls-29 {
        mix-blend-mode: overlay;
      }

      .cls-3 {
        fill: url(#radial-gradient-8);
      }

      .cls-30 {
        isolation: isolate;
      }

      .cls-4 {
        fill: url(#radial-gradient-12);
      }

      .cls-5 {
        fill: url(#radial-gradient-20);
      }

      .cls-6 {
        fill: url(#radial-gradient-18);
      }

      .cls-6, .cls-17, .cls-29 {
        opacity: .4;
      }

      .cls-7 {
        fill: url(#radial-gradient-2);
      }

      .cls-8 {
        fill: url(#radial-gradient-19);
      }

      .cls-9 {
        fill: url(#radial-gradient-25);
      }

      .cls-10 {
        fill: url(#Degradado_sin_nombre_34-2);
      }

      .cls-10, .cls-22 {
        opacity: .2;
      }

      .cls-11 {
        fill: url(#radial-gradient-21);
      }

      .cls-12 {
        fill: url(#radial-gradient-24);
      }

      .cls-13 {
        fill: url(#radial-gradient-7);
      }

      .cls-14 {
        fill: url(#radial-gradient-5);
      }

      .cls-15 {
        fill: url(#radial-gradient-13);
      }

      .cls-16 {
        fill: url(#radial-gradient);
      }

      .cls-17 {
        fill: url(#radial-gradient-14);
      }

      .cls-18 {
        fill: url(#radial-gradient-22);
      }

      .cls-19 {
        fill: url(#radial-gradient-26);
      }

      .cls-20 {
        fill: url(#radial-gradient-10);
      }

      .cls-21 {
        fill: url(#radial-gradient-6);
      }

      .cls-22 {
        fill: url(#Degradado_sin_nombre_34-3);
      }

      .cls-23 {
        fill: url(#radial-gradient-15);
      }

      .cls-24 {
        fill: url(#radial-gradient-9);
      }

      .cls-25 {
        fill: url(#radial-gradient-3);
      }

      .cls-26 {
        fill: url(#radial-gradient-11);
      }

      .cls-27 {
        fill: url(#radial-gradient-4);
      }

      .cls-28 {
        fill: url(#radial-gradient-23);
      }

      .cls-29 {
        fill: url(#Degradado_sin_nombre_34);
      }
    </style>
    <radialGradient id="radial-gradient" cx="51.76" cy="124.09" fx="51.76" fy="124.09" r="244.86" gradientTransform="translate(286.23) rotate(-180) scale(1 -1)" gradientUnits="userSpaceOnUse">
      <stop offset="0" stop-color="#fff8c7"/>
      <stop offset=".16" stop-color="#ffe436"/>
      <stop offset="1" stop-color="#fe761c"/>
    </radialGradient>
    <radialGradient id="radial-gradient-2" cx="1220.85" cy="-1652.39" fx="1220.85" fy="-1652.39" r="36.76" gradientTransform="translate(-1394.56 -3428.02) rotate(126.03) scale(1.43 2.08) skewX(-4.38)" gradientUnits="userSpaceOnUse">
      <stop offset="0" stop-color="#fff"/>
      <stop offset=".1" stop-color="rgba(255, 255, 255, .85)" stop-opacity=".85"/>
      <stop offset=".29" stop-color="rgba(255, 255, 255, .59)" stop-opacity=".59"/>
      <stop offset=".47" stop-color="rgba(255, 255, 255, .38)" stop-opacity=".38"/>
      <stop offset=".63" stop-color="rgba(255, 255, 255, .22)" stop-opacity=".22"/>
      <stop offset=".78" stop-color="rgba(255, 255, 255, .1)" stop-opacity=".1"/>
      <stop offset=".91" stop-color="rgba(255, 255, 255, .03)" stop-opacity=".03"/>
      <stop offset="1" stop-color="#fff" stop-opacity="0"/>
    </radialGradient>
    <radialGradient id="Degradado_sin_nombre_34" data-name="Degradado sin nombre 34" cx="-2751.47" cy="3032.53" fx="-2751.47" fy="3032.53" r="35.47" gradientTransform="translate(-3764.59 -547.44) rotate(-136.79) scale(1.61 .68) skewX(11.83)" gradientUnits="userSpaceOnUse">
      <stop offset="0" stop-color="#fff"/>
      <stop offset=".1" stop-color="rgba(255, 255, 255, .85)" stop-opacity=".85"/>
      <stop offset=".29" stop-color="rgba(255, 255, 255, .59)" stop-opacity=".59"/>
      <stop offset=".47" stop-color="rgba(255, 255, 255, .38)" stop-opacity=".38"/>
      <stop offset=".63" stop-color="rgba(255, 255, 255, .22)" stop-opacity=".22"/>
      <stop offset=".78" stop-color="rgba(255, 255, 255, .1)" stop-opacity=".1"/>
      <stop offset=".91" stop-color="rgba(255, 255, 255, .03)" stop-opacity=".03"/>
      <stop offset="1" stop-color="#fff" stop-opacity="0"/>
    </radialGradient>
    <radialGradient id="radial-gradient-3" cx="207.82" cy="7.9" fx="207.82" fy="7.9" r="42.61" gradientTransform="matrix(1,0,0,1,0,0)" xlink:href="#radial-gradient"/>
    <radialGradient id="radial-gradient-4" cx="649.55" cy="-232.74" fx="649.55" fy="-232.74" r="42.61" gradientTransform="translate(-227.09 687.48) rotate(-45)" xlink:href="#radial-gradient"/>
    <radialGradient id="radial-gradient-5" cx="1131.97" cy="-90.74" fx="1131.97" fy="-90.74" r="42.61" gradientTransform="translate(98.64 1334.09) rotate(-90)" xlink:href="#radial-gradient"/>
    <radialGradient id="radial-gradient-6" cx="1372.78" cy="350.99" fx="1372.78" fy="350.99" r="42.61" gradientTransform="translate(786.12 1561.18) rotate(-135)" xlink:href="#radial-gradient"/>
    <radialGradient id="radial-gradient-7" cx="1230.61" cy="833.41" fx="1230.61" fy="833.41" r="42.61" gradientTransform="translate(1432.73 1235.45) rotate(-180)" xlink:href="#radial-gradient"/>
    <radialGradient id="radial-gradient-8" cx="789.04" cy="1074.22" fx="789.04" fy="1074.22" r="42.61" gradientTransform="translate(1659.82 547.98) rotate(135)" xlink:href="#radial-gradient"/>
    <radialGradient id="radial-gradient-9" cx="306.45" cy="932.05" fx="306.45" fy="932.05" r="42.6" gradientTransform="translate(1334.1 -98.64) rotate(90)" xlink:href="#radial-gradient"/>
    <radialGradient id="radial-gradient-10" cx="65.81" cy="490.49" fx="65.81" fy="490.49" r="42.61" gradientTransform="translate(646.62 -325.73) rotate(45)" xlink:href="#radial-gradient"/>
    <radialGradient id="radial-gradient-11" cx="1687.08" cy="255.93" fx="1687.08" fy="255.93" r="221.62" gradientTransform="translate(1745.75) rotate(-180) scale(1 -1)" gradientUnits="userSpaceOnUse">
      <stop offset="0" stop-color="#fff"/>
      <stop offset=".2" stop-color="#d9f7ff"/>
      <stop offset="1" stop-color="#89c0f5"/>
    </radialGradient>
    <radialGradient id="radial-gradient-12" cx="137.95" cy="247.88" fx="137.95" fy="247.88" r="221.74" gradientUnits="userSpaceOnUse">
      <stop offset="0" stop-color="#ffe436"/>
      <stop offset=".08" stop-color="rgba(254, 206, 48, .81)" stop-opacity=".81"/>
      <stop offset=".18" stop-color="rgba(254, 183, 43, .6)" stop-opacity=".6"/>
      <stop offset=".28" stop-color="rgba(254, 163, 38, .41)" stop-opacity=".41"/>
      <stop offset=".38" stop-color="rgba(254, 147, 34, .26)" stop-opacity=".26"/>
      <stop offset=".48" stop-color="rgba(254, 134, 31, .15)" stop-opacity=".15"/>
      <stop offset=".58" stop-color="rgba(254, 125, 29, .07)" stop-opacity=".07"/>
      <stop offset=".68" stop-color="rgba(254, 119, 28, .02)" stop-opacity=".02"/>
      <stop offset=".77" stop-color="#fe761c" stop-opacity="0"/>
    </radialGradient>
    <radialGradient id="radial-gradient-13" cx="662.9" cy="-2247.46" fx="662.9" fy="-2247.46" r="26.01" gradientTransform="translate(3140.31 -3428.02) rotate(53.97) scale(1.43 -2.08) skewX(-4.38)" xlink:href="#radial-gradient-2"/>
    <radialGradient id="radial-gradient-14" cx="739.68" cy="-2208.93" fx="739.68" fy="-2208.93" r="14.29" gradientTransform="translate(3140.31 -3428.02) rotate(53.97) scale(1.43 -2.08) skewX(-4.38)" xlink:href="#radial-gradient-2"/>
    <radialGradient id="Degradado_sin_nombre_34-2" data-name="Degradado sin nombre 34" cx="1666.82" cy="446.22" fx="1666.82" fy="446.22" r="14.94" gradientTransform="translate(2033.54 323.94) rotate(-146.99) scale(.84 -2.3) skewX(11.81)" xlink:href="#Degradado_sin_nombre_34"/>
    <radialGradient id="radial-gradient-15" cx="-475.05" cy="148.05" fx="-475.05" fy="148.05" r="175.75" gradientTransform="translate(891.36)" xlink:href="#radial-gradient-11"/>
    <radialGradient id="radial-gradient-16" cx="263.77" cy="184.05" fx="263.77" fy="184.05" r="204.4" xlink:href="#radial-gradient-12"/>
    <radialGradient id="radial-gradient-17" cx="1556.55" cy="-1375.02" fx="1556.55" fy="-1375.02" r="20.62" gradientTransform="translate(-503.2 -3428.02) rotate(126.03) scale(1.43 2.08) skewX(-4.38)" xlink:href="#radial-gradient-2"/>
    <radialGradient id="radial-gradient-18" cx="1617.43" cy="-1344.47" fx="1617.43" fy="-1344.47" r="11.34" gradientTransform="translate(-503.2 -3428.02) rotate(126.03) scale(1.43 2.08) skewX(-4.38)" xlink:href="#radial-gradient-2"/>
    <radialGradient id="Degradado_sin_nombre_34-3" data-name="Degradado sin nombre 34" cx="-758.42" cy="-171.25" fx="-758.42" fy="-171.25" r="11.85" gradientTransform="translate(1052.87 210.11) rotate(-33.01) scale(.84 2.3) skewX(11.81)" xlink:href="#Degradado_sin_nombre_34"/>
    <radialGradient id="radial-gradient-19" cx="-83.27" cy="447.01" fx="-83.27" fy="447.01" r="54.11" gradientTransform="translate(366.77 144.59) rotate(30)" gradientUnits="userSpaceOnUse">
      <stop offset="0" stop-color="#d4f6ff"/>
      <stop offset=".2" stop-color="#d9f7ff"/>
      <stop offset="1" stop-color="#89c0f5"/>
    </radialGradient>
    <radialGradient id="radial-gradient-20" cx="1530.31" cy="-1603.87" fx="1530.31" fy="-1603.87" r="8.48" gradientTransform="translate(873.4 -3521.25) rotate(156.04) scale(1.43 2.08) skewX(-4.38)" xlink:href="#radial-gradient-2"/>
    <radialGradient id="radial-gradient-21" cx="-1.34" cy="399.69" fx="-1.34" fy="399.69" r="54.11" xlink:href="#radial-gradient-19"/>
    <radialGradient id="radial-gradient-22" cx="1468.29" cy="-1622.33" fx="1468.29" fy="-1622.33" r="8.47" gradientTransform="translate(873.4 -3521.25) rotate(156.04) scale(1.43 2.08) skewX(-4.38)" xlink:href="#radial-gradient-2"/>
    <radialGradient id="radial-gradient-23" cx="80.61" cy="352.38" fx="80.61" fy="352.38" r="54.11" xlink:href="#radial-gradient-19"/>
    <radialGradient id="radial-gradient-24" cx="1406.26" cy="-1640.8" fx="1406.26" fy="-1640.8" r="8.47" gradientTransform="translate(873.4 -3521.25) rotate(156.04) scale(1.43 2.08) skewX(-4.38)" xlink:href="#radial-gradient-2"/>
    <radialGradient id="radial-gradient-25" cx="162.55" cy="305.07" fx="162.55" fy="305.07" r="54.11" xlink:href="#radial-gradient-19"/>
    <radialGradient id="radial-gradient-26" cx="1344.24" cy="-1659.27" fx="1344.24" fy="-1659.27" r="8.47" gradientTransform="translate(873.4 -3521.25) rotate(156.04) scale(1.43 2.08) skewX(-4.38)" xlink:href="#radial-gradient-2"/>
  </defs>
  <g class="cls-30">
    <g id="Layer_1" data-name="Layer 1">
      <g>
        <g>
          <g>
            <path class="cls-16" d="M75.98,204.96c0,71.24,57.75,128.99,128.99,128.99s128.99-57.75,128.99-128.99-57.75-128.98-128.99-128.98-128.99,57.74-128.99,128.98Z"/>
            <g>
              <path class="cls-7" d="M224.63,191.69c-32.85-26.66-45.69-67.23-28.65-90.65,17.04-23.42,57.48-20.78,90.35,5.84,32.84,26.65,45.66,67.24,28.64,90.64-17.05,23.43-57.49,20.79-90.33-5.84Z"/>
              <path class="cls-29" d="M90.97,233.47c4.35-14.26,26.47-8.35,49.43,13.21,22.96,21.57,38.03,50.59,33.7,64.87-4.34,14.26-26.47,8.36-49.43-13.21-22.94-21.57-38.03-50.63-33.69-64.88Z"/>
            </g>
            <path class="cls-25" d="M220.62,37.84c0,8.65-7,15.65-15.65,15.65h0c-8.64,0-15.64-7-15.64-15.65V15.65c0-8.65,7-15.65,15.64-15.65h0c8.64,0,15.65,7,15.65,15.65v22.19Z"/>
            <path class="cls-27" d="M97.86,75.73c6.11,6.12,6.11,16.02,0,22.13h0c-6.11,6.11-16.01,6.11-22.13,0l-15.69-15.69c-6.12-6.12-6.12-16.01,0-22.13h0c6.11-6.11,16.02-6.11,22.13,0l15.7,15.69Z"/>
            <path class="cls-14" d="M37.85,189.33c8.65,0,15.65,7,15.64,15.64h0c0,8.64-6.99,15.64-15.64,15.64H15.65c-8.65,0-15.65-7-15.65-15.64h0c0-8.65,7-15.64,15.65-15.64h22.2Z"/>
            <path class="cls-21" d="M75.74,312.08c6.12-6.12,16.02-6.12,22.12,0h0c6.12,6.12,6.12,16.01,0,22.12l-15.69,15.7c-6.12,6.12-16.01,6.12-22.13.01h0c-6.12-6.12-6.11-16.02,0-22.13l15.69-15.7Z"/>
            <path class="cls-13" d="M189.33,372.1c0-8.65,7-15.65,15.64-15.65h0c8.65,0,15.65,7,15.65,15.65v22.19c0,8.65-7,15.64-15.64,15.65h0c-8.65,0-15.64-7-15.64-15.65v-22.19Z"/>
            <path class="cls-3" d="M312.09,334.21c-6.12-6.12-6.12-16.02,0-22.12h0c6.12-6.12,16.01-6.12,22.12,0l15.7,15.68c6.12,6.12,6.11,16.02.01,22.13h0c-6.12,6.12-16.02,6.11-22.13,0l-15.7-15.69Z"/>
            <path class="cls-24" d="M372.1,220.6c-8.65,0-15.65-6.99-15.64-15.64h0c0-8.65,6.99-15.64,15.64-15.64h22.19c8.65,0,15.64,7,15.65,15.64h0c0,8.65-7.01,15.65-15.65,15.65h-22.19Z"/>
            <path class="cls-20" d="M334.21,97.85c-6.11,6.12-16.01,6.12-22.12,0h0c-6.11-6.11-6.11-16.01,0-22.12l15.7-15.69c6.11-6.12,16.02-6.11,22.13-.01h0c6.11,6.12,6.11,16.02,0,22.13l-15.7,15.69Z"/>
          </g>
          <g>
            <path class="cls-26" d="M92.14,231.42c42.04,0,77.27,29.08,86.74,68.22,7.64-3.7,16.18-5.83,25.24-5.83,32.07,0,58.06,25.99,58.06,58.07s-26,58.06-58.06,58.06h-111.98c-49.3,0-89.26-39.96-89.26-89.26s39.96-89.26,89.26-89.26Z"/>
            <path class="cls-4" d="M92.14,231.42c42.04,0,77.27,29.08,86.74,68.22,7.64-3.7,16.18-5.83,25.24-5.83,32.07,0,58.06,25.99,58.06,58.07s-26,58.06-58.06,58.06h-111.98c-49.3,0-89.26-39.96-89.26-89.26s39.96-89.26,89.26-89.26Z"/>
            <path class="cls-15" d="M80.7,316.72c23.24-18.86,32.32-47.57,20.27-64.13-12.06-16.58-40.68-14.71-63.93,4.12-23.23,18.86-32.3,47.58-20.26,64.13,12.06,16.58,40.67,14.72,63.91-4.13Z"/>
            <path class="cls-17" d="M197.66,341.21c12.76-10.37,17.76-26.14,11.14-35.24-6.62-9.12-22.35-8.09-35.13,2.27-12.77,10.36-17.75,26.15-11.14,35.24,6.63,9.12,22.36,8.09,35.13-2.27Z"/>
            <path class="cls-10" d="M225.99,363.79c14.06-14.21,28.56-19.77,32.43-12.42,3.85,7.34-4.41,24.82-18.46,39.04-14.06,14.2-28.56,19.76-32.42,12.41-3.85-7.36,4.41-24.83,18.45-39.04Z"/>
          </g>
          <g>
            <path class="cls-23" d="M389.76,128.61c-33.33,0-61.27,23.06-68.77,54.09-6.06-2.93-12.83-4.62-20.02-4.62-25.43,0-46.05,20.61-46.05,46.04s20.62,46.05,46.05,46.05h88.79c39.1,0,70.79-31.69,70.79-70.78s-31.69-70.79-70.79-70.79Z"/>
            <path class="cls-1" d="M389.76,128.61c-33.33,0-61.27,23.06-68.77,54.09-6.06-2.93-12.83-4.62-20.02-4.62-25.43,0-46.05,20.61-46.05,46.04s20.62,46.05,46.05,46.05h88.79c39.1,0,70.79-31.69,70.79-70.78s-31.69-70.79-70.79-70.79Z"/>
            <path class="cls-2" d="M398.84,196.26c-18.42-14.96-25.63-37.72-16.07-50.86,9.56-13.14,32.25-11.66,50.69,3.27,18.43,14.95,25.62,37.73,16.06,50.86-9.56,13.15-32.26,11.67-50.69-3.27Z"/>
            <path class="cls-6" d="M306.09,215.67c-10.12-8.22-14.08-20.73-8.84-27.95,5.25-7.23,17.73-6.42,27.86,1.79,10.13,8.22,14.08,20.74,8.84,27.96-5.26,7.23-17.73,6.41-27.86-1.8Z"/>
            <path class="cls-22" d="M283.62,233.58c-11.15-11.27-22.65-15.68-25.71-9.85-3.06,5.82,3.49,19.69,14.63,30.96,11.15,11.27,22.65,15.67,25.71,9.85,3.05-5.84-3.49-19.69-14.63-30.96Z"/>
          </g>
        </g>
        <g>
          <g>
            <path class="cls-8" d="M101.26,495.18c-6.22,10.76-19.97,14.43-30.73,8.23-10.76-6.21-14.43-19.96-8.23-30.72,6.21-10.76,44.62-32.31,44.62-32.31,0,0,.54,44.04-5.66,54.8Z"/>
            <path class="cls-5" d="M62.96,491.44c-3.48-9.1-1.37-18.69,4.73-21.4,6.1-2.71,13.88,2.47,17.37,11.58,3.48,9.11,1.36,18.7-4.73,21.4-6.11,2.71-13.88-2.47-17.37-11.58Z"/>
          </g>
          <g>
            <path class="cls-11" d="M195.87,495.18c-6.21,10.76-19.96,14.43-30.72,8.23-10.76-6.21-14.45-19.96-8.24-30.72,6.22-10.76,44.63-32.31,44.63-32.31,0,0,.54,44.04-5.67,54.8Z"/>
            <path class="cls-18" d="M157.58,491.44c-3.48-9.1-1.37-18.69,4.73-21.4,6.1-2.71,13.88,2.47,17.36,11.58,3.49,9.11,1.37,18.7-4.73,21.4-6.1,2.71-13.88-2.47-17.36-11.58Z"/>
          </g>
          <g>
            <path class="cls-28" d="M290.49,495.18c-6.21,10.76-19.96,14.43-30.72,8.23-10.76-6.21-14.45-19.96-8.24-30.72,6.22-10.76,44.62-32.31,44.62-32.31,0,0,.54,44.04-5.66,54.8Z"/>
            <path class="cls-12" d="M252.2,491.44c-3.48-9.1-1.38-18.69,4.73-21.4,6.1-2.71,13.88,2.47,17.36,11.58,3.49,9.11,1.37,18.7-4.73,21.4-6.1,2.71-13.88-2.47-17.36-11.58Z"/>
          </g>
          <g>
            <path class="cls-9" d="M385.11,495.18c-6.21,10.76-19.96,14.43-30.72,8.23-10.76-6.21-14.45-19.96-8.24-30.72,6.22-10.76,44.62-32.31,44.62-32.31,0,0,.54,44.04-5.66,54.8Z"/>
            <path class="cls-19" d="M346.81,491.44c-3.48-9.1-1.38-18.69,4.73-21.4,6.1-2.71,13.88,2.47,17.36,11.58,3.49,9.11,1.37,18.7-4.73,21.4-6.1,2.71-13.88-2.47-17.36-11.58Z"/>
          </g>
        </g>
      </g>
    </g>
  </g>
</svg>