<?xml version="1.0" encoding="UTF-8"?>
<svg xmlns="http://www.w3.org/2000/svg" xmlns:xlink="http://www.w3.org/1999/xlink" viewBox="0 0 505.59 505.57">
  <defs>
    <style>
      .cls-1 {
        isolation: isolate;
      }

      .cls-2 {
        fill: #5d5f61;
      }

      .cls-2, .cls-3, .cls-4, .cls-5, .cls-6, .cls-7, .cls-8 {
        stroke-width: 0px;
      }

      .cls-3 {
        fill: #fff;
        opacity: .5;
      }

      .cls-3, .cls-7, .cls-8 {
        mix-blend-mode: overlay;
      }

      .cls-4 {
        fill: url(#radial-gradient-2);
      }

      .cls-5 {
        fill: url(#radial-gradient);
      }

      .cls-6 {
        fill: #b1b1b6;
      }

      .cls-7 {
        fill: url(#radial-gradient-3);
      }

      .cls-8 {
        fill: url(#Degradado_sin_nombre_34);
        opacity: .4;
      }
    </style>
    <radialGradient id="radial-gradient" cx="-1753.26" cy="94.29" fx="-1753.26" fy="94.29" r="479.88" gradientTransform="translate(1948.24)" gradientUnits="userSpaceOnUse">
      <stop offset="0" stop-color="#fdfefe"/>
      <stop offset=".16" stop-color="#f1edf5"/>
      <stop offset="1" stop-color="#9ea0a5"/>
    </radialGradient>
    <radialGradient id="radial-gradient-2" cx="536.27" cy="-62.72" fx="536.27" fy="-62.72" r="425.95" gradientUnits="userSpaceOnUse">
      <stop offset="0" stop-color="#fdfefe"/>
      <stop offset=".16" stop-color="#aeabb0"/>
      <stop offset="1" stop-color="#6b6d70"/>
    </radialGradient>
    <radialGradient id="radial-gradient-3" cx="388.68" cy="-2184.55" fx="388.68" fy="-2184.55" r="72.03" gradientTransform="translate(1938.72 -4072.24) rotate(32.99) scale(1.43 -2.08) skewX(-4.38)" gradientUnits="userSpaceOnUse">
      <stop offset="0" stop-color="#fff"/>
      <stop offset=".1" stop-color="rgba(255, 255, 255, .85)" stop-opacity=".85"/>
      <stop offset=".29" stop-color="rgba(255, 255, 255, .59)" stop-opacity=".59"/>
      <stop offset=".47" stop-color="rgba(255, 255, 255, .38)" stop-opacity=".38"/>
      <stop offset=".63" stop-color="rgba(255, 255, 255, .22)" stop-opacity=".22"/>
      <stop offset=".78" stop-color="rgba(255, 255, 255, .1)" stop-opacity=".1"/>
      <stop offset=".91" stop-color="rgba(255, 255, 255, .03)" stop-opacity=".03"/>
      <stop offset="1" stop-color="#fff" stop-opacity="0"/>
    </radialGradient>
    <radialGradient id="Degradado_sin_nombre_34" data-name="Degradado sin nombre 34" cx="-4038.59" cy="4453.08" fx="-4038.59" fy="4453.08" r="69.51" gradientTransform="translate(6178.7 1093.32) rotate(-24.58) scale(1.61 -.68) skewX(11.84)" gradientUnits="userSpaceOnUse">
      <stop offset="0" stop-color="#fff"/>
      <stop offset=".1" stop-color="rgba(255, 255, 255, .85)" stop-opacity=".85"/>
      <stop offset=".29" stop-color="rgba(255, 255, 255, .59)" stop-opacity=".59"/>
      <stop offset=".47" stop-color="rgba(255, 255, 255, .38)" stop-opacity=".38"/>
      <stop offset=".63" stop-color="rgba(255, 255, 255, .22)" stop-opacity=".22"/>
      <stop offset=".78" stop-color="rgba(255, 255, 255, .1)" stop-opacity=".1"/>
      <stop offset=".91" stop-color="rgba(255, 255, 255, .03)" stop-opacity=".03"/>
      <stop offset="1" stop-color="#fff" stop-opacity="0"/>
    </radialGradient>
  </defs>
  <g class="cls-1">
    <g id="Layer_1" data-name="Layer 1">
      <g>
        <path class="cls-5" d="M505.59,252.79c0,139.61-113.18,252.78-252.79,252.78S0,392.4,0,252.79,113.19,0,252.8,0s252.79,113.18,252.79,252.79Z"/>
        <path class="cls-3" d="M216.16,175.19c0,128.76,96.29,234.94,220.78,250.68,6.02-6.39,11.71-13.08,17.04-20.07,30.98-41.96,49.33-93.79,49.33-149.95,0-128.95-96.59-235.28-221.34-250.78-40.88,44.91-65.8,104.6-65.8,170.12Z"/>
        <path class="cls-4" d="M284.25,2.02c-40.88,44.91-65.8,104.6-65.8,170.12,0,128.95,96.58,235.27,221.34,250.76,40.88-44.9,65.8-104.59,65.8-170.1,0-128.95-96.59-235.28-221.34-250.78Z"/>
        <g>
          <path class="cls-6" d="M76.15,297.52c23.76-2.14,40.73-29.09,37.93-60.19-2.78-31.1-24.3-54.58-48.07-52.44-23.74,2.14-40.73,29.1-37.93,60.18,2.79,31.1,24.31,54.58,48.07,52.46Z"/>
          <path class="cls-6" d="M55.57,320.12c-14.26,7.48-17.83,28.65-8.05,47.27,9.78,18.63,29.24,27.66,43.48,20.21,14.2-7.46,17.8-28.63,8.03-47.25-9.77-18.63-29.25-27.68-43.46-20.22Z"/>
          <path class="cls-6" d="M111.94,297.67c-8.42,4.42-10.54,16.91-4.76,27.92,5.78,11.01,17.27,16.35,25.69,11.94,8.39-4.41,10.51-16.91,4.76-27.92-5.78-11.01-17.28-16.35-25.69-11.94Z"/>
          <path class="cls-2" d="M486.28,261.94c-4.37-30.92-27.04-53.28-50.67-49.95-23.61,3.32-39.21,31.1-34.83,62.02,4.36,30.92,27.04,53.29,50.66,49.94,23.6-3.33,39.22-31.1,34.85-62.01Z"/>
          <path class="cls-2" d="M455.04,188.36c13.83-8.19,16.35-29.52,5.63-47.62-10.7-18.1-30.59-26.15-44.43-17.97-13.81,8.15-16.34,29.49-5.63,47.6,10.7,18.12,30.59,26.17,44.43,17.99Z"/>
          <path class="cls-2" d="M403.19,185.5c-6.34-10.69-18.07-15.44-26.26-10.62-8.16,4.83-9.66,17.43-3.33,28.13,6.32,10.72,18.09,15.45,26.26,10.62,8.17-4.83,9.67-17.42,3.33-28.13Z"/>
        </g>
        <g>
          <path class="cls-7" d="M215.02,228.94c41.39-71.83,36.43-155.08-11.17-185.97-47.62-30.9-119.79,2.28-161.24,74.08C1.2,188.86,6.25,272.13,53.8,303c47.66,30.94,119.81-2.26,161.22-74.06Z"/>
          <path class="cls-8" d="M475.6,358.59c.85-29.22-43.92-32.07-100.07-6.41-56.13,25.68-102.3,70.16-103.17,99.39-.87,29.2,43.9,32.09,100.06,6.42,56.1-25.68,102.3-70.22,103.18-99.41Z"/>
        </g>
      </g>
    </g>
  </g>
</svg>