<?xml version="1.0" encoding="UTF-8"?>
<svg xmlns="http://www.w3.org/2000/svg" xmlns:xlink="http://www.w3.org/1999/xlink" viewBox="0 0 506.46 421.18">
  <defs>
    <style>
      .cls-1 {
        fill: url(#radial-gradient-4);
        opacity: .5;
      }

      .cls-1, .cls-2, .cls-3, .cls-4, .cls-5, .cls-6, .cls-7, .cls-8 {
        stroke-width: 0px;
      }

      .cls-1, .cls-2, .cls-3, .cls-4, .cls-8 {
        mix-blend-mode: overlay;
      }

      .cls-9 {
        isolation: isolate;
      }

      .cls-2 {
        fill: url(#radial-gradient-2);
      }

      .cls-3 {
        fill: url(#Degradado_sin_nombre_34-2);
        opacity: .2;
      }

      .cls-4 {
        fill: url(#radial-gradient-5);
        opacity: .3;
      }

      .cls-5 {
        fill: url(#radial-gradient);
      }

      .cls-6 {
        fill: #b1b1b6;
      }

      .cls-7 {
        fill: url(#radial-gradient-3);
      }

      .cls-8 {
        fill: url(#Degradado_sin_nombre_34);
        opacity: .4;
      }
    </style>
    <radialGradient id="radial-gradient" cx="-37.5" cy="66.17" fx="-37.5" fy="66.17" r="336.75" gradientTransform="translate(332.13) rotate(-180) scale(1 -1)" gradientUnits="userSpaceOnUse">
      <stop offset="0" stop-color="#fdfefe"/>
      <stop offset=".16" stop-color="#f1edf5"/>
      <stop offset="1" stop-color="#9ea0a5"/>
    </radialGradient>
    <radialGradient id="radial-gradient-2" cx="1187.52" cy="-1740.04" fx="1187.52" fy="-1740.04" r="50.55" gradientTransform="translate(-1421.34 -3553.07) rotate(126.03) scale(1.43 2.08) skewX(-4.38)" gradientUnits="userSpaceOnUse">
      <stop offset="0" stop-color="#fff"/>
      <stop offset=".1" stop-color="rgba(255, 255, 255, .85)" stop-opacity=".85"/>
      <stop offset=".29" stop-color="rgba(255, 255, 255, .59)" stop-opacity=".59"/>
      <stop offset=".47" stop-color="rgba(255, 255, 255, .38)" stop-opacity=".38"/>
      <stop offset=".63" stop-color="rgba(255, 255, 255, .22)" stop-opacity=".22"/>
      <stop offset=".78" stop-color="rgba(255, 255, 255, .1)" stop-opacity=".1"/>
      <stop offset=".91" stop-color="rgba(255, 255, 255, .03)" stop-opacity=".03"/>
      <stop offset="1" stop-color="#fff" stop-opacity="0"/>
    </radialGradient>
    <radialGradient id="Degradado_sin_nombre_34" data-name="Degradado sin nombre 34" cx="-2785.76" cy="3020.94" fx="-2785.76" fy="3020.94" r="48.78" gradientTransform="translate(-3705.29 -595.85) rotate(-136.79) scale(1.61 .68) skewX(11.83)" gradientUnits="userSpaceOnUse">
      <stop offset="0" stop-color="#fff"/>
      <stop offset=".1" stop-color="rgba(255, 255, 255, .85)" stop-opacity=".85"/>
      <stop offset=".29" stop-color="rgba(255, 255, 255, .59)" stop-opacity=".59"/>
      <stop offset=".47" stop-color="rgba(255, 255, 255, .38)" stop-opacity=".38"/>
      <stop offset=".63" stop-color="rgba(255, 255, 255, .22)" stop-opacity=".22"/>
      <stop offset=".78" stop-color="rgba(255, 255, 255, .1)" stop-opacity=".1"/>
      <stop offset=".91" stop-color="rgba(255, 255, 255, .03)" stop-opacity=".03"/>
      <stop offset="1" stop-color="#fff" stop-opacity="0"/>
    </radialGradient>
    <radialGradient id="radial-gradient-3" cx="1695.72" cy="156.41" fx="1695.72" fy="156.41" r="380.99" gradientTransform="translate(1791.64) rotate(-180) scale(1 -1)" gradientUnits="userSpaceOnUse">
      <stop offset="0" stop-color="#b9cfd5"/>
      <stop offset=".2" stop-color="#9bbac2"/>
      <stop offset="1" stop-color="#5c8bb8"/>
    </radialGradient>
    <radialGradient id="radial-gradient-4" cx="673.29" cy="-2274.64" fx="673.29" fy="-2274.64" r="44.7" gradientTransform="translate(3212.99 -3553.07) rotate(53.97) scale(1.43 -2.08) skewX(-4.38)" xlink:href="#radial-gradient-2"/>
    <radialGradient id="radial-gradient-5" cx="805.27" cy="-2208.42" fx="805.27" fy="-2208.42" r="24.57" gradientTransform="translate(3212.99 -3553.07) rotate(53.97) scale(1.43 -2.08) skewX(-4.38)" xlink:href="#radial-gradient-2"/>
    <radialGradient id="Degradado_sin_nombre_34-2" data-name="Degradado sin nombre 34" cx="1523.02" cy="412.57" fx="1523.02" fy="412.57" r="25.69" gradientTransform="translate(2047.58 307.25) rotate(-146.99) scale(.84 -2.3) skewX(11.81)" xlink:href="#Degradado_sin_nombre_34"/>
  </defs>
  <g class="cls-9">
    <g id="Layer_1" data-name="Layer 1">
      <g>
        <g>
          <path class="cls-5" d="M151.67,177.39c0,97.97,79.43,177.38,177.39,177.38s177.39-79.41,177.39-177.38S427.03,0,329.06,0s-177.39,79.43-177.39,177.39Z"/>
          <g>
            <path class="cls-6" d="M205.11,208.78c16.68-1.5,28.58-20.41,26.62-42.24-1.95-21.82-17.06-38.29-33.74-36.8-16.65,1.51-28.57,20.42-26.61,42.23,1.96,21.83,17.06,38.3,33.73,36.81Z"/>
            <path class="cls-6" d="M190.66,224.64c-10,5.25-12.5,20.1-5.65,33.17,6.87,13.08,20.52,19.42,30.51,14.18,9.97-5.24,12.5-20.09,5.63-33.16-6.86-13.07-20.52-19.42-30.5-14.19Z"/>
            <path class="cls-6" d="M230.22,208.88c-5.91,3.11-7.39,11.87-3.33,19.6,4.05,7.72,12.12,11.47,18.03,8.39,5.88-3.1,7.37-11.87,3.33-19.6-4.05-7.72-12.13-11.47-18.03-8.39Z"/>
            <path class="cls-6" d="M492.9,183.81c-3.06-21.7-18.98-37.39-35.56-35.05-16.56,2.33-27.51,21.82-24.44,43.52,3.05,21.7,18.98,37.39,35.54,35.05,16.56-2.33,27.52-21.82,24.46-43.51Z"/>
            <path class="cls-6" d="M470.98,132.18c9.7-5.74,11.48-20.71,3.95-33.41-7.51-12.71-21.46-18.35-31.18-12.62-9.7,5.72-11.47,20.69-3.95,33.4,7.51,12.71,21.46,18.36,31.18,12.62Z"/>
            <path class="cls-6" d="M434.6,130.17c-4.43-7.5-12.67-10.83-18.42-7.46-5.72,3.39-6.77,12.23-2.33,19.74,4.43,7.53,12.69,10.84,18.43,7.46,5.73-3.39,6.79-12.22,2.33-19.74Z"/>
          </g>
          <g>
            <path class="cls-2" d="M356.09,159.15c-45.16-36.67-62.83-92.46-39.4-124.66,23.44-32.2,79.05-28.6,124.26,8.03,45.17,36.65,62.78,92.47,39.37,124.64-23.44,32.25-79.07,28.62-124.23-8.02Z"/>
            <path class="cls-8" d="M172.27,216.59c6-19.62,36.41-11.49,67.99,18.17,31.56,29.65,52.29,69.59,46.32,89.22-5.97,19.6-36.38,11.49-67.97-18.16-31.56-29.65-52.3-69.62-46.34-89.23Z"/>
          </g>
        </g>
        <g>
          <path class="cls-7" d="M153.44,114.28c72.28,0,132.85,49.99,149.12,117.27,13.14-6.36,27.81-10.02,43.39-10.02,55.13,0,99.82,44.69,99.82,99.82s-44.69,99.83-99.82,99.83h-192.51C68.69,421.18,0,352.47,0,267.72S68.69,114.28,153.44,114.28Z"/>
          <path class="cls-1" d="M133.8,260.91c39.95-32.41,55.56-81.77,34.84-110.24-20.72-28.49-69.92-25.29-109.88,7.1C18.8,190.18,3.22,239.56,23.92,268.01c20.72,28.5,69.93,25.3,109.88-7.11Z"/>
          <path class="cls-4" d="M334.86,303.01c21.95-17.82,30.53-44.94,19.14-60.59-11.39-15.66-38.41-13.91-60.4,3.9-21.94,17.82-30.52,44.95-19.15,60.59,11.41,15.66,38.44,13.91,60.4-3.9Z"/>
          <path class="cls-3" d="M383.57,341.82c24.15-24.43,49.09-33.98,55.74-21.34,6.62,12.62-7.58,42.68-31.74,67.12-24.17,24.42-49.11,33.97-55.74,21.34-6.61-12.65,7.58-42.68,31.73-67.11Z"/>
        </g>
      </g>
    </g>
  </g>
</svg>