<?xml version="1.0" encoding="UTF-8"?>
<svg xmlns="http://www.w3.org/2000/svg" xmlns:xlink="http://www.w3.org/1999/xlink" viewBox="0 0 501.06 350.88">
  <defs>
    <style>
      .cls-1 {
        fill: url(#radial-gradient-6);
        opacity: .4;
      }

      .cls-1, .cls-2, .cls-3, .cls-4, .cls-5, .cls-6, .cls-7, .cls-8 {
        stroke-width: 0px;
      }

      .cls-1, .cls-2, .cls-3, .cls-4, .cls-6, .cls-7 {
        mix-blend-mode: overlay;
      }

      .cls-9 {
        isolation: isolate;
      }

      .cls-2 {
        fill: url(#radial-gradient-3);
        opacity: .3;
      }

      .cls-3 {
        fill: url(#Degradado_sin_nombre_34);
      }

      .cls-3, .cls-4 {
        opacity: .2;
      }

      .cls-4 {
        fill: url(#Degradado_sin_nombre_34-2);
      }

      .cls-5 {
        fill: url(#radial-gradient);
      }

      .cls-6 {
        fill: url(#radial-gradient-2);
        opacity: .5;
      }

      .cls-7 {
        fill: url(#radial-gradient-5);
      }

      .cls-8 {
        fill: url(#radial-gradient-4);
      }
    </style>
    <radialGradient id="radial-gradient" cx="1600.07" cy="37.92" fx="1600.07" fy="37.92" r="342.9" gradientTransform="translate(1786.25) rotate(-180) scale(1 -1)" gradientUnits="userSpaceOnUse">
      <stop offset="0" stop-color="#bad0d6"/>
      <stop offset=".2" stop-color="#9bbac2"/>
      <stop offset="1" stop-color="#5d8bb8"/>
    </radialGradient>
    <radialGradient id="radial-gradient-2" cx="663.35" cy="-2248.63" fx="663.35" fy="-2248.63" r="40.24" gradientTransform="translate(3269.45 -3631.24) rotate(53.97) scale(1.43 -2.08) skewX(-4.38)" gradientUnits="userSpaceOnUse">
      <stop offset="0" stop-color="#fff"/>
      <stop offset=".1" stop-color="rgba(255, 255, 255, .85)" stop-opacity=".85"/>
      <stop offset=".29" stop-color="rgba(255, 255, 255, .59)" stop-opacity=".59"/>
      <stop offset=".47" stop-color="rgba(255, 255, 255, .38)" stop-opacity=".38"/>
      <stop offset=".63" stop-color="rgba(255, 255, 255, .22)" stop-opacity=".22"/>
      <stop offset=".78" stop-color="rgba(255, 255, 255, .1)" stop-opacity=".1"/>
      <stop offset=".91" stop-color="rgba(255, 255, 255, .03)" stop-opacity=".03"/>
      <stop offset="1" stop-color="#fff" stop-opacity="0"/>
    </radialGradient>
    <radialGradient id="radial-gradient-3" cx="782.14" cy="-2189.02" fx="782.14" fy="-2189.02" r="22.12" xlink:href="#radial-gradient-2"/>
    <radialGradient id="Degradado_sin_nombre_34" data-name="Degradado sin nombre 34" cx="1467.62" cy="231.72" fx="1467.62" fy="231.72" r="23.12" gradientTransform="translate(1815.73 473.72) rotate(-146.99) scale(.84 -2.3) skewX(11.81)" gradientUnits="userSpaceOnUse">
      <stop offset="0" stop-color="#fff"/>
      <stop offset=".1" stop-color="rgba(255, 255, 255, .85)" stop-opacity=".85"/>
      <stop offset=".29" stop-color="rgba(255, 255, 255, .59)" stop-opacity=".59"/>
      <stop offset=".47" stop-color="rgba(255, 255, 255, .38)" stop-opacity=".38"/>
      <stop offset=".63" stop-color="rgba(255, 255, 255, .22)" stop-opacity=".22"/>
      <stop offset=".78" stop-color="rgba(255, 255, 255, .1)" stop-opacity=".1"/>
      <stop offset=".91" stop-color="rgba(255, 255, 255, .03)" stop-opacity=".03"/>
      <stop offset="1" stop-color="#fff" stop-opacity="0"/>
    </radialGradient>
    <radialGradient id="radial-gradient-4" cx="1699.92" cy="112.58" fx="1699.92" fy="112.58" r="342.9" gradientTransform="translate(1786.25) rotate(-180) scale(1 -1)" gradientUnits="userSpaceOnUse">
      <stop offset="0" stop-color="#fff"/>
      <stop offset=".2" stop-color="#d9f7ff"/>
      <stop offset="1" stop-color="#89c0f5"/>
    </radialGradient>
    <radialGradient id="radial-gradient-5" cx="659.92" cy="-2308.54" fx="659.92" fy="-2308.54" r="40.24" xlink:href="#radial-gradient-2"/>
    <radialGradient id="radial-gradient-6" cx="778.71" cy="-2248.93" fx="778.71" fy="-2248.93" r="22.11" xlink:href="#radial-gradient-2"/>
    <radialGradient id="Degradado_sin_nombre_34-2" data-name="Degradado sin nombre 34" cx="1568.44" cy="347.7" fx="1568.44" fy="347.7" r="23.12" gradientTransform="translate(1949.3 382.22) rotate(-146.99) scale(.84 -2.3) skewX(11.81)" xlink:href="#Degradado_sin_nombre_34"/>
  </defs>
  <g class="cls-9">
    <g id="Layer_1" data-name="Layer 1">
      <g>
        <g>
          <path class="cls-5" d="M237.96,0c65.05,0,119.57,44.99,134.21,105.55,11.82-5.72,25.03-9.03,39.05-9.03,49.62,0,89.85,40.22,89.85,89.84s-40.22,89.85-89.85,89.85h-173.26c-76.28,0-138.1-61.83-138.1-138.11S161.68,0,237.96,0Z"/>
          <path class="cls-6" d="M220.28,131.97c35.95-29.17,50-73.6,31.35-99.22-18.65-25.64-62.93-22.76-98.9,6.39-35.95,29.18-49.98,73.62-31.35,99.23,18.66,25.64,62.94,22.76,98.9-6.4Z"/>
          <path class="cls-2" d="M401.23,169.86c19.76-16.04,27.48-40.45,17.23-54.53-10.25-14.1-34.57-12.51-54.36,3.51-19.75,16.03-27.46,40.46-17.23,54.53,10.27,14.1,34.59,12.51,54.36-3.51Z"/>
          <path class="cls-3" d="M445.07,204.79c21.74-21.99,44.19-30.58,50.17-19.21,5.95,11.36-6.83,38.41-28.56,60.4-21.75,21.99-44.2,30.58-50.17,19.21-5.95-11.39,6.82-38.41,28.56-60.4Z"/>
        </g>
        <g>
          <path class="cls-8" d="M138.11,74.67c65.06,0,119.57,44.99,134.21,105.55,11.82-5.72,25.04-9.03,39.05-9.03,49.62,0,89.84,40.22,89.84,89.84s-40.22,89.84-89.84,89.84h-173.26C61.83,350.88,0,289.05,0,212.77S61.83,74.67,138.11,74.67Z"/>
          <path class="cls-7" d="M120.42,206.64c35.95-29.18,50-73.6,31.36-99.22-18.66-25.64-62.92-22.76-98.9,6.39-35.94,29.17-49.97,73.61-31.35,99.23,18.66,25.64,62.94,22.76,98.89-6.39Z"/>
          <path class="cls-1" d="M301.38,244.53c19.76-16.03,27.48-40.45,17.24-54.53-10.26-14.1-34.58-12.51-54.36,3.51-19.76,16.03-27.46,40.45-17.23,54.53,10.26,14.1,34.59,12.52,54.35-3.51Z"/>
          <path class="cls-4" d="M345.24,279.46c21.74-21.99,44.17-30.58,50.16-19.21,5.95,11.36-6.82,38.41-28.56,60.41-21.74,21.98-44.2,30.58-50.17,19.2-5.95-11.38,6.82-38.41,28.57-60.4Z"/>
        </g>
      </g>
    </g>
  </g>
</svg>