<?xml version="1.0" encoding="UTF-8"?>
<svg id="Layer_1" data-name="Layer 1" xmlns="http://www.w3.org/2000/svg" xmlns:xlink="http://www.w3.org/1999/xlink" viewBox="0 0 511 512">
  <defs>
    <style>
      .cls-1 {
        fill: url(#linear-gradient);
        stroke-width: 0px;
      }
    </style>
    <linearGradient id="linear-gradient" x1="0" y1="256" x2="511" y2="256" gradientUnits="userSpaceOnUse">
      <stop offset="0" stop-color="#1eb4eb"/>
      <stop offset=".49" stop-color="#1eb4eb"/>
      <stop offset="1" stop-color="#92f4fe"/>
    </linearGradient>
  </defs>
  <path class="cls-1" d="M352.31,236.54h41.92c0,20.91,17.24,37.93,38.43,37.93s38.42-17.02,38.42-37.93h39.92c0,42.93-35.14,77.85-78.34,77.85-23.73,0-45.01-10.55-59.39-27.16-14.38,16.61-35.66,27.16-59.38,27.16-43.2,0-78.35-34.92-78.35-77.85h39.92c0,20.91,17.24,37.93,38.43,37.93s38.43-17.02,38.43-37.93h0ZM432.66,384.25c-21.19,0-38.43-17.02-38.43-37.93h-41.92c0,20.91-17.24,37.93-38.42,37.93s-38.43-17.02-38.43-37.93h-39.92c0,20.91-17.24,37.93-38.43,37.93s-38.42-17.02-38.42-37.93h-39.92c0,42.93,35.14,77.85,78.34,77.85,23.18,0,44.03-10.06,58.39-26.01,14.36,15.95,35.21,26.01,58.39,26.01s45-10.55,59.38-27.16c14.38,16.61,35.66,27.16,59.39,27.16,43.2,0,78.34-34.92,78.34-77.85h-39.92c0,20.91-17.23,37.93-38.42,37.93ZM266.62,454.27c-21.52,11.36-46.01,17.81-72,17.81-85.3,0-154.7-69.4-154.7-154.7v-5.35c0-50.96,48.92-111.44,92.07-164.8,23.8-29.43,46.87-57.95,62.54-85.27,15.7,27.46,38.9,56.01,62.84,85.48,12.92,15.9,26.35,32.43,38.83,49.18h49.05c-17.13-25.4-37.29-50.22-56.9-74.36C252.09,77.62,214.58,31.45,214.58,0h-39.92c0,30.98-37.47,77.32-73.71,122.12C51.32,183.49,0,246.95,0,312.03v5.35c0,107.32,87.31,194.62,194.62,194.62,49.01,0,93.85-18.22,128.1-48.23-2.92.21-5.86.33-8.84.33-16.8,0-32.79-3.51-47.27-9.83h0Z"/>
</svg>