<?xml version="1.0" encoding="UTF-8"?>
<svg id="Layer_1" data-name="Layer 1" xmlns="http://www.w3.org/2000/svg" xmlns:xlink="http://www.w3.org/1999/xlink" viewBox="0 0 509.12 509.12">
  <defs>
    <style>
      .cls-1 {
        fill: url(#linear-gradient);
        stroke-width: 0px;
      }
    </style>
    <linearGradient id="linear-gradient" x1="0" y1="254.56" x2="509.12" y2="254.56" gradientUnits="userSpaceOnUse">
      <stop offset="0" stop-color="#1eb4eb"/>
      <stop offset=".49" stop-color="#1eb4eb"/>
      <stop offset="1" stop-color="#92f4fe"/>
    </linearGradient>
  </defs>
  <path class="cls-1" d="M509.12,491.36c0,9.81-7.95,17.76-17.76,17.76H88.8c-49.02-.05-88.75-39.78-88.8-88.8V17.76C0,7.95,7.95,0,17.76,0s17.76,7.95,17.76,17.76v402.56c.03,29.41,23.87,53.25,53.28,53.28h402.56c9.81,0,17.76,7.95,17.76,17.76ZM88.8,390.72c5.18,0,10.11-2.26,13.47-6.2l108.93-126.92c5.33-6.29,13.07-10.04,21.31-10.32,8.24-.31,16.24,2.83,22.07,8.67l22.38,22.38c12.91,12.69,30.45,19.54,48.54,18.94,18.12-.73,35.12-8.95,46.96-22.69l108.79-126.95c6.14-7.65,4.92-18.83-2.73-24.97-7.3-5.86-17.89-5.05-24.22,1.86l-108.93,126.92c-5.33,6.29-13.07,10.04-21.31,10.32-8.24.27-16.23-2.83-22.14-8.57l-22.31-22.31c-12.92-12.68-30.46-19.52-48.54-18.94-18.12.73-35.12,8.95-46.96,22.69l-108.79,126.78c-6.38,7.45-5.52,18.66,1.93,25.04,3.22,2.76,7.31,4.27,11.54,4.27Z"/>
</svg>