<?xml version="1.0" encoding="utf-8"?>
<!-- Generator: Adobe Illustrator 28.4.1, SVG Export Plug-In . SVG Version: 6.00 Build 0)  -->
<svg version="1.1" id="Layer_1" xmlns="http://www.w3.org/2000/svg" xmlns:xlink="http://www.w3.org/1999/xlink" x="0px" y="0px"
	 viewBox="0 0 512 512" style="enable-background:new 0 0 512 512;" xml:space="preserve">
<style type="text/css">
	.st0{fill:url(#SVGID_1_);}
</style>
<g transform="matrix(1.4999999999999996,0,0,1.4999999999999996,-128.0025024414062,-127.99999999999989)">
	<g>
		
			<linearGradient id="SVGID_1_" gradientUnits="userSpaceOnUse" x1="185.9349" y1="218.4825" x2="-75.4051" y2="479.8225" gradientTransform="matrix(1.5 0 0 -1.5 106.3308 736.3333)">
			<stop  offset="0" style="stop-color:#1EB4EB"/>
			<stop  offset="0.49" style="stop-color:#1EB4EB"/>
			<stop  offset="1" style="stop-color:#92F4FE"/>
		</linearGradient>
		<path class="st0" d="M363.8,296.2H255.9c-8.8,0.6-16.5-6-17.1-14.8c-0.6-8.8,6-16.5,14.8-17.1c0.8-0.1,1.5-0.1,2.3,0h107.9
			c16.9,0,30.5-13.7,30.5-30.5c0-16.9-13.7-30.5-30.5-30.5c-16.9,0-30.5,13.7-30.5,30.5c-0.6,8.8-8.3,15.5-17.1,14.8
			c-7.9-0.6-14.3-6.9-14.8-14.8c0-34.5,28-62.5,62.5-62.5s62.5,28,62.5,62.5S398.3,296.2,363.8,296.2L363.8,296.2L363.8,296.2z
			 M224.2,280.2c0-8.8-7.2-16-16-16h-32.6c-8.8,0.6-15.5,8.3-14.8,17.1c0.6,7.9,6.9,14.3,14.8,14.8h32.7
			C217,296.1,224.1,289,224.2,280.2L224.2,280.2z M396,377.8c0-26.7-21.7-48.4-48.4-48.4h-165c-8.8,0.6-15.5,8.2-14.9,17
			c0.5,8,6.9,14.4,14.9,14.9h164.9c9.1,0,16.5,7.4,16.5,16.5s-7.4,16.5-16.5,16.5c-6.5,0-12.3-3.8-15-9.6c-4.3-7.7-14-10.5-21.7-6.2
			c-6.9,3.8-10,12.1-7.3,19.6c11.2,24.3,39.9,35,64.2,23.8C385,413.9,396,396.7,396,377.8z M150.2,345.3c0-8.8-7.2-16-16-16h-32.4
			c-8.8,0.6-15.5,8.2-14.9,17c0.5,8,6.9,14.4,14.9,14.9h32.5C143,361.2,150.1,354.1,150.2,345.3L150.2,345.3z M294.4,123.1
			c0-10-2.4-19.9-7-28.8c-4.6-7.5-14.4-9.9-22-5.3c-6.8,4.2-9.5,12.7-6.3,20.1c2.2,4.3,3.4,9.1,3.4,14c0,16.9-13.6,30.5-30.5,30.6
			H124.1c-8.8-0.6-16.4,6.1-17,14.9c-0.6,8.8,6.1,16.4,14.9,17c0.7,0,1.4,0,2.1,0H232C266.5,185.5,294.4,157.6,294.4,123.1
			L294.4,123.1z"/>
	</g>
</g>
</svg>
