<?xml version="1.0" encoding="utf-8"?>
<svg version="1.1" id="svg5" xmlns="http://www.w3.org/2000/svg" xmlns:xlink="http://www.w3.org/1999/xlink" x="0px" y="0px"
	 viewBox="0 0 1000 1000" style="enable-background:new 0 0 1000 1000;" xml:space="preserve">
<style type="text/css">
	.st0{fill:#FFCC00;}
	.st1{fill:#C6E0F7;}
	.st2{fill:#3981BF;}
</style>
<g id="g984">
	<path id="circle14650" class="st0" d="M844.4,351.4c0,86.4-70,156.4-156.4,156.4s-156.4-70-156.4-156.4S601.6,195,688,195
		C774.3,195,844.4,265.1,844.4,351.4z"/>
	<path id="path14652" class="st0" d="M688,44.2c-11.3,0-20.5,11-20.5,24.6V122c0,13.6,9.1,24.6,20.5,24.6s20.5-11,20.5-24.6V68.8
		C708.5,55.2,699.3,44.2,688,44.2z"/>
	<path id="path14654" class="st0" d="M905.2,134.2c-8-8-22.2-6.7-31.9,2.9l-37.7,37.7c-9.6,9.6-10.9,23.8-2.9,31.9
		s22.2,6.7,31.9-2.9l37.7-37.7C911.9,156.4,913.2,142.2,905.2,134.2z"/>
	<path id="path14656" class="st0" d="M995.2,351.4c0-11.3-11-20.5-24.6-20.5h-53.2c-13.6,0-24.6,9.1-24.6,20.5s11,20.5,24.6,20.5
		h53.2C984.2,371.9,995.2,362.8,995.2,351.4z"/>
	<path id="path14658" class="st0" d="M905.2,568.6c8-8,6.7-22.2-2.9-31.9l-37.7-37.7c-9.6-9.6-23.8-10.9-31.9-2.9
		c-8,8-6.7,22.2,2.9,31.9l37.7,37.7C883,575.4,897.2,576.7,905.2,568.6z"/>
	<path id="path14660" class="st0" d="M688,658.6c11.3,0,20.5-11,20.5-24.6v-53.2c0-13.6-9.1-24.6-20.5-24.6s-20.5,11-20.5,24.6V634
		C667.5,647.7,676.6,658.6,688,658.6z"/>
	<path id="path14662" class="st0" d="M470.8,568.6c8,8,22.2,6.7,31.9-2.9l37.7-37.7c9.6-9.6,10.9-23.8,2.9-31.9
		c-8-8-22.2-6.7-31.9,2.9l-37.7,37.7C464,546.4,462.7,560.6,470.8,568.6z"/>
	<path id="path14664" class="st0" d="M380.8,351.4c0,11.3,11,20.5,24.6,20.5h53.2c13.6,0,24.6-9.1,24.6-20.5
		c0-11.3-11-20.5-24.6-20.5l-53.2,0C391.7,330.9,380.8,340.1,380.8,351.4L380.8,351.4z"/>
	<path id="path14666" class="st0" d="M470.8,134.2c-8,8-6.7,22.2,2.9,31.9l37.7,37.7c9.6,9.6,23.8,10.9,31.9,2.9
		c8-8,6.7-22.2-2.9-31.9l-37.7-37.7C493,127.5,478.8,126.2,470.8,134.2z"/>
	<path id="rect2741" class="st1" d="M299.3,291.1c-98.4,0-178.1,79.7-178.1,178.1c0,6.6,0.4,13.2,1.2,19.7
		C55.2,500.9,4.8,555.2,4.8,620.7c0,74.4,65,134.3,145.8,134.3h206.7h11.3h302.4c74.4,0,134.3-55.7,134.3-124.9
		c0-68.7-59.2-124.1-132.9-124.8c-9.8-77.1-75.3-134.8-153-134.8c-21.9,0-43.6,4.7-63.6,13.8C424.7,326.9,364.6,291.1,299.3,291.1
		L299.3,291.1z"/>
	<path id="circle8231" class="st2" d="M213.3,670.5c-13.5,15.3-50.1,45.8-61.2,87.5c-5.2,19.5,6.3,39.5,25.8,44.7l0,0
		c19.5,5.2,39.5-6.3,44.7-25.8c0.1-0.3,0.2-0.6,0.2-0.9C234.2,732.2,217.4,690.4,213.3,670.5L213.3,670.5z"/>
	<path id="path8238" class="st2" d="M380.1,670.5c-13.5,15.3-50.1,45.8-61.2,87.5c-5.2,19.5,6.3,39.5,25.8,44.7l0,0
		c19.5,5.2,39.5-6.3,44.7-25.8c0.1-0.3,0.2-0.6,0.2-0.9C400.9,732.2,384.1,690.4,380.1,670.5L380.1,670.5z"/>
	<path id="path8240" class="st2" d="M547.1,675c-13.5,15.3-50.1,45.8-61.2,87.5c-5.2,19.5,6.3,39.5,25.8,44.7l0,0
		c19.5,5.2,39.5-6.3,44.7-25.8c0.1-0.3,0.2-0.6,0.2-0.9C567.9,736.7,551.2,694.8,547.1,675L547.1,675z"/>
	<path id="path8852" class="st2" d="M296.8,822.4c-13.5,15.3-50.1,45.8-61.2,87.5c-5.2,19.5,6.3,39.5,25.8,44.7l0,0
		c19.5,5.2,39.5-6.3,44.7-25.8c0.1-0.3,0.2-0.6,0.2-0.9C317.7,884.1,300.9,842.2,296.8,822.4L296.8,822.4z"/>
	<path id="path8854" class="st2" d="M463.6,822.4c-13.5,15.3-50.1,45.8-61.2,87.5c-5.2,19.5,6.3,39.5,25.8,44.7l0,0
		c19.5,5.2,39.5-6.3,44.7-25.8c0,0,0,0,0,0c0.1-0.3,0.2-0.6,0.2-0.9C484.4,884.1,467.7,842.2,463.6,822.4L463.6,822.4z"/>
</g>
</svg>
